# xmcd CD database file
#
# Track frame offsets:
#	150
#	11446
#	29887
#	41871
#	57813
#	74634
#	97615
#	116778
#	132587
#	149861
#	165543
#	177305
#
# Disc length: 2649 seconds
#
# Revision: 0
# Processed by: cddbd v1.5.2PL0 Copyright (c) Steve Scherf et al.
# Submitted via: CDex 1.51
#
DISCID=b60a570c
DTITLE=AJ Hobbs - Too Much Is Never Enough
DYEAR=2017
DGENRE=Country
TTITLE0=Too Much Is Never Enough
TTITLE1=Life Without You
TTITLE2=The Loser
TTITLE3=The Bottle Let Me Down
TTITLE4=Daddy Loved the Lord
TTITLE5=Eastside
TTITLE6=Shit Just Got Real
TTITLE7=You Going To Tennessee
TTITLE8=Whole Lot Of You And Me
TTITLE9=Take It Slow
TTITLE10=Waylon and Merle
TTITLE11=Tomorrow I'll Be Hurtin
EXTD=YEAR: 2017
EXTT0=
EXTT1=
EXTT2=
EXTT3=
EXTT4=
EXTT5=
EXTT6=
EXTT7=
EXTT8=
EXTT9=
EXTT10=
EXTT11=
PLAYORDER=
